<svg width="14" height="15" viewBox="0 0 14 15" fill="none" xmlns="http://www.w3.org/2000/svg">
<path d="M11.8125 4.43692H2.1875C1.221 4.43692 0.4375 5.22042 0.4375 6.18692V11.4369C0.4375 12.4034 1.221 13.1869 2.1875 13.1869H11.8125C12.779 13.1869 13.5625 12.4034 13.5625 11.4369V6.18692C13.5625 5.22042 12.779 4.43692 11.8125 4.43692Z" stroke="#001024" stroke-width="0.875" stroke-linecap="round" stroke-linejoin="round"/>
<path d="M3.9375 4.43692V13.1869" stroke="#001024" stroke-width="0.875" stroke-linecap="round" stroke-linejoin="round"/>
<path d="M10.0625 4.43692V13.1869" stroke="#001024" stroke-width="0.875" stroke-linecap="round" stroke-linejoin="round"/>
<path d="M9.1875 4.43692V2.68692C9.1875 2.45486 9.09531 2.2323 8.93122 2.0682C8.76712 1.90411 8.54456 1.81192 8.3125 1.81192H5.6875C5.45544 1.81192 5.23288 1.90411 5.06878 2.0682C4.90469 2.2323 4.8125 2.45486 4.8125 2.68692V4.43692" stroke="#001024" stroke-width="0.875" stroke-linecap="round" stroke-linejoin="round"/>
</svg>
