<svg width="21" height="21" viewBox="0 0 21 21" fill="none" xmlns="http://www.w3.org/2000/svg">
<g clip-path="url(#clip0_2067_686)">
<path d="M18.2874 8.20832H6.13242C6.07757 8.20788 6.02335 8.1966 5.97287 8.17515C5.92239 8.1537 5.87664 8.1225 5.83825 8.08332L4.53742 6.78582C4.38117 6.62953 4.16925 6.5417 3.94825 6.54166H1.46158C1.31925 6.54152 1.17925 6.57784 1.05493 6.64716C0.930618 6.71648 0.82613 6.81648 0.751429 6.93764C0.676729 7.0588 0.634307 7.19707 0.628207 7.33928C0.622107 7.48148 0.652533 7.62288 0.716585 7.74999L2.79992 11.9167C2.86861 12.0554 2.97483 12.1722 3.10651 12.2536C3.2382 12.3351 3.39008 12.378 3.54492 12.3775H8.44492C8.48618 12.3774 8.52653 12.3896 8.56086 12.4125C8.59518 12.4354 8.62195 12.4679 8.63774 12.506C8.65354 12.5442 8.65767 12.5861 8.6496 12.6266C8.64153 12.667 8.62163 12.7042 8.59242 12.7333L5.37158 15.9517C5.25484 16.0681 5.17527 16.2166 5.14294 16.3783C5.11061 16.54 5.12697 16.7076 5.18996 16.86C5.25295 17.0124 5.35973 17.1427 5.49679 17.2343C5.63385 17.326 5.79503 17.375 5.95992 17.375H8.94825C9.16925 17.3749 9.38117 17.2871 9.53742 17.1308L14.1716 12.5C14.2497 12.4221 14.3555 12.3783 14.4658 12.3783H18.2874C18.84 12.3783 19.3699 12.1588 19.7606 11.7681C20.1513 11.3774 20.3708 10.8475 20.3708 10.295C20.3708 9.74246 20.1513 9.21255 19.7606 8.82185C19.3699 8.43115 18.84 8.21166 18.2874 8.21166V8.20832Z" fill="#001024"/>
<path d="M9.24328 7.25001C9.32137 7.3279 9.42715 7.37165 9.53745 7.37167H13.3708C13.412 7.37158 13.4522 7.35928 13.4864 7.33633C13.5206 7.31338 13.5472 7.28081 13.5629 7.24273C13.5786 7.20465 13.5827 7.16277 13.5746 7.12239C13.5665 7.08201 13.5466 7.04493 13.5174 7.01584L10.3674 3.86584C10.2112 3.70955 9.99927 3.62172 9.77828 3.62167H7.62661C7.46182 3.62171 7.30074 3.6706 7.16373 3.76217C7.02672 3.85374 6.91994 3.98388 6.85688 4.13613C6.79382 4.28838 6.77732 4.45591 6.80946 4.61753C6.8416 4.77916 6.92094 4.92763 7.03745 5.04417L9.24328 7.25001Z" fill="#001024"/>
</g>
<defs>
<clipPath id="clip0_2067_686">
<rect width="20" height="20" fill="white" transform="translate(0.5 0.5)"/>
</clipPath>
</defs>
</svg>
