<svg width="24" height="24" viewBox="0 0 24 24" fill="none" xmlns="http://www.w3.org/2000/svg">
<path d="M19.5 9.5H18.75V6.75C18.75 4.95979 18.0388 3.2429 16.773 1.97703C15.5071 0.711159 13.7902 0 12 0C10.2098 0 8.4929 0.711159 7.22703 1.97703C5.96116 3.2429 5.25 4.95979 5.25 6.75V9.5H4.5C3.96957 9.5 3.46086 9.71071 3.08579 10.0858C2.71071 10.4609 2.5 10.9696 2.5 11.5V22C2.5 22.5304 2.71071 23.0391 3.08579 23.4142C3.46086 23.7893 3.96957 24 4.5 24H19.5C20.0304 24 20.5391 23.7893 20.9142 23.4142C21.2893 23.0391 21.5 22.5304 21.5 22V11.5C21.5 10.9696 21.2893 10.4609 20.9142 10.0858C20.5391 9.71071 20.0304 9.5 19.5 9.5ZM12 18.5C11.6044 18.5 11.2178 18.3827 10.8889 18.1629C10.56 17.9432 10.3036 17.6308 10.1522 17.2654C10.0009 16.8999 9.96126 16.4978 10.0384 16.1098C10.1156 15.7219 10.3061 15.3655 10.5858 15.0858C10.8655 14.8061 11.2219 14.6156 11.6098 14.5384C11.9978 14.4613 12.3999 14.5009 12.7654 14.6522C13.1308 14.8036 13.4432 15.06 13.6629 15.3889C13.8827 15.7178 14 16.1044 14 16.5C14 17.0304 13.7893 17.5391 13.4142 17.9142C13.0391 18.2893 12.5304 18.5 12 18.5ZM16.25 9C16.25 9.13261 16.1973 9.25979 16.1036 9.35355C16.0098 9.44732 15.8826 9.5 15.75 9.5H8.25C8.11739 9.5 7.99021 9.44732 7.89645 9.35355C7.80268 9.25979 7.75 9.13261 7.75 9V6.75C7.75 5.62283 8.19777 4.54183 8.9948 3.7448C9.79183 2.94777 10.8728 2.5 12 2.5C13.1272 2.5 14.2082 2.94777 15.0052 3.7448C15.8022 4.54183 16.25 5.62283 16.25 6.75V9Z" fill="#001024"/>
</svg>
