<svg width="24" height="24" viewBox="0 0 24 24" fill="none" xmlns="http://www.w3.org/2000/svg">
<path d="M20.4882 3.515C18.8103 1.83873 16.6732 0.697527 14.3469 0.235644C12.0206 -0.226239 9.60956 0.0119368 7.4186 0.920063C5.22763 1.82819 3.35509 3.3655 2.03767 5.33766C0.720243 7.30982 0.0170898 9.62829 0.0170898 12C0.0170898 14.3717 0.720243 16.6902 2.03767 18.6623C3.35509 20.6345 5.22763 22.1718 7.4186 23.0799C9.60956 23.9881 12.0206 24.2262 14.3469 23.7644C16.6732 23.3025 18.8103 22.1613 20.4882 20.485C22.735 18.2328 23.9968 15.1813 23.9968 12C23.9968 8.81868 22.735 5.76723 20.4882 3.515ZM16.7092 15.279C16.8799 15.4692 16.9713 15.7174 16.9647 15.9729C16.9581 16.2284 16.854 16.4716 16.6737 16.6527C16.4934 16.8337 16.2506 16.9389 15.9951 16.9466C15.7397 16.9543 15.491 16.8639 15.3002 16.694L12.1902 13.584C12.143 13.5375 12.0794 13.5114 12.0132 13.5114C11.9469 13.5114 11.8833 13.5375 11.8362 13.584L8.72717 16.694C8.53722 16.8772 8.28359 16.9797 8.01966 16.9797C7.75574 16.9797 7.50211 16.8772 7.31217 16.694C7.21919 16.6011 7.14543 16.4908 7.09511 16.3694C7.04478 16.248 7.01888 16.1179 7.01888 15.9865C7.01888 15.8551 7.04478 15.725 7.09511 15.6036C7.14543 15.4822 7.21919 15.3719 7.31217 15.279L10.4222 12.17C10.4454 12.1469 10.4639 12.1194 10.4765 12.0891C10.489 12.0588 10.4955 12.0263 10.4955 11.9935C10.4955 11.9607 10.489 11.9282 10.4765 11.8979C10.4639 11.8676 10.4454 11.8401 10.4222 11.817L7.31217 8.707C7.13946 8.51708 7.0464 8.26802 7.05226 8.01139C7.05812 7.75475 7.16245 7.5102 7.34365 7.32836C7.52484 7.14652 7.76902 7.04133 8.02564 7.03456C8.28225 7.0278 8.53164 7.11997 8.72217 7.292L11.8312 10.402C11.8544 10.4253 11.882 10.4438 11.9123 10.4564C11.9427 10.469 11.9753 10.4754 12.0082 10.4754C12.041 10.4754 12.0736 10.469 12.104 10.4564C12.1344 10.4438 12.1619 10.4253 12.1852 10.402L15.2952 7.292C15.4828 7.10449 15.7372 6.99921 16.0025 6.9993C16.2678 6.99939 16.5222 7.10486 16.7097 7.2925C16.8972 7.48014 17.0025 7.73459 17.0024 7.99986C17.0023 8.26513 16.8968 8.51949 16.7092 8.707L13.5992 11.817C13.5525 11.8639 13.5262 11.9273 13.5262 11.9935C13.5262 12.0597 13.5525 12.1231 13.5992 12.17L16.7092 15.279Z" fill="#001024"/>
</svg>
