<svg width="14" height="15" viewBox="0 0 14 15" fill="none" xmlns="http://www.w3.org/2000/svg">
<g clip-path="url(#clip0_2034_972)">
<path d="M9.80282 5.33525L4.61932 7.07767L3.92574 6.38758L2.89557 6.73408C2.82692 6.75707 2.76507 6.79676 2.71556 6.84958C2.66605 6.90239 2.63044 6.96669 2.61193 7.03667C2.59342 7.10666 2.5926 7.18015 2.60952 7.25053C2.62645 7.32092 2.6606 7.386 2.7089 7.43992L4.10249 8.99975C4.21677 9.12779 4.36618 9.2194 4.53214 9.26317C4.69809 9.30694 4.87325 9.30094 5.03582 9.24592L6.5624 8.73317L6.25324 10.9382C6.24276 11.0121 6.25137 11.0874 6.27825 11.1571C6.30513 11.2267 6.34938 11.2883 6.4068 11.336C6.46421 11.3838 6.53288 11.416 6.60627 11.4297C6.67966 11.4433 6.75532 11.438 6.82607 11.4142L7.6194 11.147C7.68012 11.1265 7.73561 11.093 7.78197 11.0487C7.82833 11.0045 7.86443 10.9506 7.88774 10.8909L9.0509 7.89667L10.4999 7.409C10.6361 7.36304 10.7618 7.2907 10.8701 7.19613C10.9783 7.10156 11.0668 6.9866 11.1306 6.85782C11.1944 6.72904 11.2321 6.58895 11.2418 6.44556C11.2514 6.30217 11.2327 6.15829 11.1868 6.02212C11.1408 5.88596 11.0685 5.76018 10.9739 5.65197C10.8793 5.54376 10.7644 5.45524 10.6356 5.39146C10.5068 5.32767 10.3667 5.28988 10.2233 5.28024C10.08 5.27059 9.93607 5.28929 9.7999 5.33525H9.80282Z" stroke="#001024" stroke-width="0.8125" stroke-linecap="round" stroke-linejoin="round"/>
<path d="M8.35174 5.82346L6.73008 4.70638C6.67411 4.66799 6.61 4.64311 6.54279 4.6337C6.47558 4.62428 6.4071 4.63059 6.34274 4.65213L5.56224 4.91463C5.49162 4.93842 5.42825 4.97985 5.37813 5.035C5.32801 5.09015 5.29281 5.15719 5.27586 5.22976C5.25892 5.30233 5.26079 5.37802 5.28131 5.44967C5.30182 5.52131 5.34029 5.58652 5.39308 5.63913L6.27799 6.51996" stroke="#001024" stroke-width="0.8125" stroke-linecap="round" stroke-linejoin="round"/>
<path d="M10.9375 0.9375H3.0625C1.61275 0.9375 0.4375 2.11275 0.4375 3.5625V11.4375C0.4375 12.8872 1.61275 14.0625 3.0625 14.0625H10.9375C12.3872 14.0625 13.5625 12.8872 13.5625 11.4375V3.5625C13.5625 2.11275 12.3872 0.9375 10.9375 0.9375Z" stroke="#001024" stroke-width="0.8125" stroke-linecap="round" stroke-linejoin="round"/>
</g>
<defs>
<clipPath id="clip0_2034_972">
<rect width="14" height="14" fill="white" transform="translate(0 0.5)"/>
</clipPath>
</defs>
</svg>
