<svg width="40" height="40" viewBox="0 0 40 40" fill="none" xmlns="http://www.w3.org/2000/svg">
<rect width="40" height="40" rx="20" fill="#F6EDE4"/>
<g clip-path="url(#clip0_2067_87)">
<path d="M16.3333 19.3334C15.4763 19.3334 14.6385 19.5875 13.9259 20.0637C13.2133 20.5398 12.6578 21.2166 12.3299 22.0084C12.0019 22.8002 11.9161 23.6715 12.0833 24.5121C12.2505 25.3527 12.6632 26.1248 13.2692 26.7308C13.8752 27.3369 14.6474 27.7496 15.4879 27.9168C16.3285 28.084 17.1998 27.9982 17.9916 27.6702C18.7834 27.3422 19.4602 26.7868 19.9364 26.0742C20.4125 25.3616 20.6667 24.5238 20.6667 23.6667C20.6653 22.5179 20.2083 21.4165 19.3959 20.6041C18.5836 19.7918 17.4822 19.3348 16.3333 19.3334ZM17.9273 23.1254C17.9665 23.1744 17.991 23.2336 17.9981 23.2959C18.0051 23.3583 17.9944 23.4214 17.9672 23.478C17.94 23.5346 17.8973 23.5823 17.8441 23.6157C17.791 23.649 17.7294 23.6667 17.6667 23.6667H17.1667C17.1225 23.6667 17.0801 23.6843 17.0488 23.7155C17.0176 23.7468 17 23.7892 17 23.8334V25.6667C17 25.8435 16.9298 26.0131 16.8047 26.1381C16.6797 26.2631 16.5101 26.3334 16.3333 26.3334C16.1565 26.3334 15.987 26.2631 15.8619 26.1381C15.7369 26.0131 15.6667 25.8435 15.6667 25.6667V23.8334C15.6667 23.7892 15.6491 23.7468 15.6179 23.7155C15.5866 23.6843 15.5442 23.6667 15.5 23.6667H15C14.9372 23.6667 14.8757 23.649 14.8225 23.6157C14.7694 23.5823 14.7267 23.5346 14.6995 23.478C14.6722 23.4214 14.6615 23.3583 14.6686 23.2959C14.6756 23.2336 14.7002 23.1744 14.7393 23.1254L16.0727 21.4587C16.105 21.4213 16.145 21.3913 16.19 21.3707C16.235 21.3502 16.2839 21.3395 16.3333 21.3395C16.3828 21.3395 16.4317 21.3502 16.4766 21.3707C16.5216 21.3913 16.5616 21.4213 16.594 21.4587L17.9273 23.1254Z" fill="#9C5E42"/>
<path d="M28 14.9427C27.9999 14.5891 27.8594 14.25 27.6093 14L26 12.3907C25.8761 12.2668 25.7291 12.1685 25.5672 12.1015C25.4054 12.0344 25.2319 11.9999 25.0567 12H17.3333C16.9797 12 16.6406 12.1405 16.3905 12.3905C16.1405 12.6406 16 12.9797 16 13.3333V18.1833C15.9996 18.2267 16.0164 18.2685 16.0465 18.2997C16.0767 18.3309 16.118 18.349 16.1613 18.35C16.4053 18.354 16.8533 18.372 17.1513 18.4053C17.1745 18.4079 17.1978 18.4055 17.22 18.3983C17.2421 18.3911 17.2624 18.3794 17.2796 18.3637C17.2968 18.3481 17.3105 18.329 17.3198 18.3076C17.3291 18.2863 17.3337 18.2633 17.3333 18.24V13.6667C17.3333 13.5783 17.3685 13.4935 17.431 13.431C17.4935 13.3685 17.5783 13.3333 17.6667 13.3333H24.9193C25.0076 13.3334 25.0922 13.3684 25.1547 13.4307L26.5693 14.8453C26.6317 14.9078 26.6667 14.9924 26.6667 15.0807V24C26.6667 24.0884 26.6316 24.1732 26.569 24.2357C26.5065 24.2982 26.4217 24.3333 26.3333 24.3333H21.7613C21.7222 24.3336 21.6845 24.3478 21.655 24.3735C21.6255 24.3992 21.6063 24.4346 21.6007 24.4733C21.5506 24.8043 21.4694 25.1297 21.358 25.4453C21.3486 25.47 21.3453 25.4965 21.3485 25.5227C21.3516 25.5489 21.3611 25.5739 21.376 25.5956C21.391 25.6173 21.411 25.6351 21.4343 25.6473C21.4577 25.6596 21.4836 25.666 21.51 25.666H26.6667C27.0203 25.666 27.3594 25.5255 27.6095 25.2755C27.8595 25.0254 28 24.6863 28 24.3327V14.9427Z" fill="#9C5E42"/>
</g>
<defs>
<clipPath id="clip0_2067_87">
<rect width="16" height="16" fill="white" transform="translate(12 12)"/>
</clipPath>
</defs>
</svg>
