<svg width="14" height="15" viewBox="0 0 14 15" fill="none" xmlns="http://www.w3.org/2000/svg">
<g clip-path="url(#clip0_2029_206)">
<path d="M9.80282 5.33531L4.61932 7.07773L3.92574 6.38764L2.89557 6.73414C2.82692 6.75714 2.76507 6.79682 2.71556 6.84964C2.66605 6.90246 2.63044 6.96675 2.61193 7.03673C2.59342 7.10672 2.5926 7.18021 2.60952 7.25059C2.62645 7.32098 2.6606 7.38606 2.7089 7.43998L4.10249 8.99981C4.21677 9.12786 4.36618 9.21946 4.53214 9.26323C4.69809 9.307 4.87325 9.301 5.03582 9.24598L6.5624 8.73323L6.25324 10.9382C6.24276 11.0121 6.25137 11.0875 6.27825 11.1571C6.30513 11.2268 6.34938 11.2884 6.4068 11.3361C6.46421 11.3838 6.53288 11.416 6.60627 11.4297C6.67966 11.4434 6.75532 11.4381 6.82607 11.4142L7.6194 11.1471C7.68012 11.1266 7.73561 11.093 7.78197 11.0488C7.82833 11.0045 7.86443 10.9507 7.88774 10.891L9.0509 7.89673L10.4999 7.40906C10.6361 7.3631 10.7618 7.29077 10.8701 7.19619C10.9783 7.10162 11.0668 6.98666 11.1306 6.85788C11.1944 6.7291 11.2321 6.58901 11.2418 6.44562C11.2514 6.30223 11.2327 6.15835 11.1868 6.02219C11.1408 5.88602 11.0685 5.76024 10.9739 5.65203C10.8793 5.54382 10.7644 5.4553 10.6356 5.39152C10.5068 5.32773 10.3667 5.28994 10.2233 5.2803C10.08 5.27066 9.93607 5.28935 9.7999 5.33531H9.80282Z" stroke="#001024" stroke-width="0.8125" stroke-linecap="round" stroke-linejoin="round"/>
<path d="M8.35174 5.8234L6.73008 4.70632C6.67411 4.66793 6.61 4.64305 6.54279 4.63363C6.47558 4.62422 6.4071 4.63053 6.34274 4.65207L5.56224 4.91457C5.49162 4.93836 5.42825 4.97979 5.37813 5.03494C5.32801 5.09009 5.29281 5.15713 5.27586 5.2297C5.25892 5.30227 5.26079 5.37796 5.28131 5.44961C5.30182 5.52125 5.34029 5.58646 5.39308 5.63907L6.27799 6.5199" stroke="#001024" stroke-width="0.8125" stroke-linecap="round" stroke-linejoin="round"/>
<path d="M10.9375 0.9375H3.0625C1.61275 0.9375 0.4375 2.11275 0.4375 3.5625V11.4375C0.4375 12.8872 1.61275 14.0625 3.0625 14.0625H10.9375C12.3872 14.0625 13.5625 12.8872 13.5625 11.4375V3.5625C13.5625 2.11275 12.3872 0.9375 10.9375 0.9375Z" stroke="#001024" stroke-width="0.8125" stroke-linecap="round" stroke-linejoin="round"/>
</g>
<defs>
<clipPath id="clip0_2029_206">
<rect width="14" height="14" fill="white" transform="translate(0 0.5)"/>
</clipPath>
</defs>
</svg>
