<svg width="24" height="24" viewBox="0 0 24 24" fill="none" xmlns="http://www.w3.org/2000/svg">
<g clip-path="url(#clip0_2029_80)">
<path d="M6 24C7.24264 24 8.25 22.9926 8.25 21.75C8.25 20.5074 7.24264 19.5 6 19.5C4.75736 19.5 3.75 20.5074 3.75 21.75C3.75 22.9926 4.75736 24 6 24Z" fill="white"/>
<path d="M15.25 24C16.4926 24 17.5 22.9926 17.5 21.75C17.5 20.5074 16.4926 19.5 15.25 19.5C14.0074 19.5 13 20.5074 13 21.75C13 22.9926 14.0074 24 15.25 24Z" fill="white"/>
<path d="M23 7.18987e-06H20.684C20.3284 -0.0010934 19.9839 0.124194 19.7121 0.353515C19.4403 0.582836 19.2588 0.901273 19.2 1.25201L16.437 16.545C16.4251 16.6015 16.3942 16.6521 16.3494 16.6885C16.3046 16.7249 16.2487 16.7449 16.191 16.745H5C4.86739 16.745 4.74021 16.6923 4.64645 16.5986C4.55268 16.5048 4.5 16.3776 4.5 16.245C4.5 16.1124 4.55268 15.9852 4.64645 15.8915C4.74021 15.7977 4.86739 15.745 5 15.745H12.758C13.421 15.745 14.0569 15.4816 14.5258 15.0128C14.9946 14.5439 15.258 13.908 15.258 13.245C15.258 12.582 14.9946 11.9461 14.5258 11.4772C14.0569 11.0084 13.421 10.745 12.758 10.745H3.5C3.36739 10.745 3.24021 10.6923 3.14645 10.5986C3.05268 10.5048 3 10.3776 3 10.245C3 10.1124 3.05268 9.98522 3.14645 9.89145C3.24021 9.79769 3.36739 9.74501 3.5 9.74501H14.25C14.913 9.74501 15.5489 9.48162 16.0178 9.01277C16.4866 8.54393 16.75 7.90805 16.75 7.24501C16.75 6.58197 16.4866 5.94608 16.0178 5.47724C15.5489 5.0084 14.913 4.74501 14.25 4.74501H1C0.734784 4.74501 0.48043 4.85036 0.292893 5.0379C0.105357 5.22544 0 5.47979 0 5.74501C0 6.01022 0.105357 6.26458 0.292893 6.45211C0.48043 6.63965 0.734784 6.74501 1 6.74501H14.25C14.3826 6.74501 14.5098 6.79769 14.6036 6.89145C14.6973 6.98522 14.75 7.1124 14.75 7.24501C14.75 7.37762 14.6973 7.50479 14.6036 7.59856C14.5098 7.69233 14.3826 7.74501 14.25 7.74501H3.5C2.83696 7.74501 2.20107 8.0084 1.73223 8.47724C1.26339 8.94608 1 9.58197 1 10.245C1 10.908 1.26339 11.5439 1.73223 12.0128C2.20107 12.4816 2.83696 12.745 3.5 12.745H12.758C12.8906 12.745 13.0178 12.7977 13.1116 12.8915C13.2053 12.9852 13.258 13.1124 13.258 13.245C13.258 13.3776 13.2053 13.5048 13.1116 13.5986C13.0178 13.6923 12.8906 13.745 12.758 13.745H5C4.33696 13.745 3.70107 14.0084 3.23223 14.4772C2.76339 14.9461 2.5 15.582 2.5 16.245C2.5 16.9081 2.76339 17.5439 3.23223 18.0128C3.70107 18.4816 4.33696 18.745 5 18.745H16.816C17.1706 18.7464 17.5142 18.6221 17.7859 18.3942C18.0576 18.1663 18.2397 17.8495 18.3 17.5L21.063 2.20501C21.0739 2.14762 21.1044 2.0958 21.1493 2.05841C21.1941 2.02102 21.2506 2.00037 21.309 2.00001H23C23.2652 2.00001 23.5196 1.89465 23.7071 1.70711C23.8946 1.51958 24 1.26522 24 1.00001C24 0.734791 23.8946 0.480437 23.7071 0.2929C23.5196 0.105364 23.2652 7.18987e-06 23 7.18987e-06Z" fill="white"/>
</g>
<defs>
<clipPath id="clip0_2029_80">
<rect width="24" height="24" fill="white"/>
</clipPath>
</defs>
</svg>
