<svg width="128" height="48" viewBox="0 0 128 48" fill="none" xmlns="http://www.w3.org/2000/svg">
<g clip-path="url(#clip0_2029_338)">
<path d="M34.6843 11.373C34.6726 11.3208 34.6462 11.2731 34.6082 11.2357C34.5702 11.1983 34.5222 11.1727 34.4701 11.162L34.3782 11.1381C34.2573 11.1139 34.1328 11.1162 34.0129 11.1447L33.2636 11.3251L31.1544 10.0265C31.1018 9.99383 31.0432 9.97189 30.982 9.96213C30.9209 9.95238 30.8584 9.95497 30.7982 9.96968L30.5841 10.0216C30.5677 10.0256 30.5527 10.0339 30.5407 10.0457C30.5285 10.0575 30.5198 10.0723 30.5154 10.0886C30.511 10.1049 30.511 10.1221 30.5154 10.1384C30.5198 10.1547 30.5285 10.1696 30.5405 10.1814L32.0556 11.6457C31.6756 11.7281 31.3021 11.827 30.9345 11.9423L30.4264 11.4644C30.4155 11.4544 30.4023 11.4472 30.3881 11.4431C30.3739 11.4391 30.3589 11.4385 30.3444 11.4413L30.1605 11.4858C30.147 11.4892 30.1342 11.4955 30.1233 11.5043C30.1124 11.5131 30.1036 11.5243 30.0973 11.5369C30.0911 11.5497 30.0878 11.5638 30.0878 11.5781C30.0878 11.5924 30.0911 11.6065 30.0973 11.6193L30.3509 12.1434C29.8607 12.3237 29.381 12.5314 28.9139 12.7655C28.2828 5.62055 22.2891 0 15.0102 0C12.8651 0.000160239 10.7488 0.497201 8.82617 1.45246C6.90351 2.40771 5.22627 3.79543 3.92492 5.50766L3.61387 3.86789L3.24537 5.81171L1.30931 6.18169L3.20433 6.54426C1.79375 8.77981 1.04621 11.3724 1.04915 14.0188V19.5347C0.836681 19.3974 0.650441 19.223 0.499274 19.0197C0.480723 18.9957 0.456362 18.9768 0.428502 18.9648C0.40064 18.9528 0.370198 18.9482 0.340056 18.9513C0.293855 18.9524 0.248328 18.9627 0.20613 18.9816C0.163931 19.0005 0.125906 19.0277 0.0942762 19.0615C0.0626468 19.0953 0.0380439 19.1351 0.0219058 19.1786C0.00576767 19.2221 -0.00158133 19.2683 0.000283521 19.3147C0.000283521 19.5438 0.380272 19.9113 1.04915 20.2211V33.982C1.04915 41.712 7.31199 48 15.0102 48C22.3794 48 28.4321 42.2386 28.9377 34.9675C29.1682 34.917 29.3751 34.7897 29.5247 34.6065C29.6743 34.4232 29.7579 34.1946 29.762 33.9577C29.766 33.7208 29.6903 33.4894 29.5472 33.3011C29.404 33.1127 29.2016 32.9784 28.973 32.9198V14.018C28.973 13.8342 28.9681 13.6513 28.9606 13.4692C29.4498 13.2291 29.9534 13.0124 30.4716 12.819L30.4782 13.236C30.4773 13.2428 30.4773 13.2498 30.4782 13.2566C30.4842 13.281 30.4995 13.302 30.5209 13.3151C30.5422 13.3282 30.5678 13.3323 30.5922 13.3266L30.7753 13.2821C30.7904 13.2786 30.8045 13.2714 30.816 13.261C30.8276 13.2507 30.8365 13.2375 30.8417 13.2229L31.0633 12.6123C31.333 12.5243 31.6066 12.4434 31.884 12.3691C31.9908 12.3535 32.0982 12.3362 32.2123 12.3156L31.5238 14.3163C31.5183 14.3323 31.5172 14.3494 31.5207 14.366C31.5241 14.3826 31.5319 14.3979 31.5431 14.4104C31.5545 14.4229 31.5689 14.4322 31.5849 14.4373C31.601 14.4423 31.6181 14.4429 31.6346 14.4391L31.8496 14.388C31.9096 14.3736 31.9663 14.3476 32.0163 14.3112C32.0663 14.2749 32.1086 14.229 32.141 14.1762L33.4344 12.0618L34.1886 11.8814C34.3085 11.8508 34.4206 11.7946 34.5169 11.7166L34.5809 11.6605C34.6239 11.6277 34.6566 11.5831 34.675 11.5321C34.6933 11.4811 34.6966 11.4258 34.6843 11.373ZM1.5703 14.018C1.56723 11.6446 2.19172 9.31291 3.37997 7.26114L3.61387 8.49714L3.98237 6.5525L5.91924 6.18251L4.30244 5.87352C5.55406 4.21155 7.17233 2.86349 9.03021 1.93518C10.8881 1.00686 12.935 0.523574 15.0102 0.523244C22.0897 0.523244 27.9085 6.04409 28.4149 13.0283C26.4862 14.0856 24.7373 15.5688 23.1254 17.2308C23.0173 16.1173 22.6873 15.0369 22.1551 14.0539C21.6228 13.071 20.8992 12.2055 20.0272 11.5089C19.5988 11.1707 19.1393 10.8741 18.655 10.6231C18.1715 10.3758 17.6666 10.1732 17.1465 10.0174C16.6312 9.87002 16.103 9.77234 15.5691 9.72571C14.5044 9.64008 13.4334 9.76663 12.4176 10.0982C11.4015 10.4293 10.4594 10.9557 9.64363 11.6482C9.23789 12.0014 8.8651 12.3912 8.52995 12.8125C7.86072 13.6692 7.35942 14.6456 7.05264 15.6899C6.89952 16.2185 6.79971 16.7612 6.75473 17.3099C6.68783 18.1697 6.75036 19.0347 6.94021 19.8759C6.06225 20.0923 5.16285 20.2089 4.25895 20.2235C3.73943 20.2235 2.54202 20.212 1.57112 19.8116L1.5703 14.018ZM15.9245 25.9752C15.4092 26.024 14.8901 26.0126 14.3775 25.9413C13.8793 25.8651 13.3897 25.7401 12.9158 25.5681C12.4446 25.3906 11.9932 25.1641 11.569 24.8924C11.2638 24.7034 10.9727 24.4921 10.6982 24.2604C13.6175 20.1297 18.028 15.4279 18.028 14.9705C18.028 14.9022 18.0058 14.8115 17.9377 14.8115C17.8015 14.8115 17.4625 15.0167 17.1449 15.2433C15.8827 16.1497 11.7676 18.517 7.8873 19.6295C7.70962 18.8853 7.6291 18.1211 7.64766 17.356C7.66402 16.8633 7.72219 16.3729 7.82163 15.8901C7.92267 15.3997 8.07021 14.9202 8.26236 14.458C8.64212 13.5237 9.21115 12.6788 9.93333 11.9769C10.6661 11.2684 11.5511 10.7384 12.5202 10.4278C13.4887 10.1104 14.5165 10.0186 15.5256 10.1592C16.5231 10.3046 17.4795 10.6568 18.3341 11.1933C20.012 12.2735 21.2535 13.9166 21.8377 15.8299C22.0804 16.5881 22.216 17.3767 22.2407 18.1726C19.8926 20.7518 17.8343 23.6358 15.9245 25.9752ZM22.244 18.7354V18.742C22.2352 19.2353 22.1802 19.7266 22.0799 20.2096C21.8766 21.1954 21.4864 22.1328 20.9309 22.9708C20.6506 23.3913 20.3235 23.7784 19.9558 24.1244C19.2191 24.8276 18.3353 25.3568 17.369 25.6735C17.0629 25.773 16.7502 25.8508 16.4334 25.9067C18.1921 23.7083 20.0503 21.1028 22.2431 18.7354H22.244ZM9.3999 22.8892C8.80973 22.0985 8.35916 21.2119 8.06786 20.268C8.03999 20.1816 8.0153 20.0942 7.98576 20.0077C12.1165 18.7074 16.1535 16.1992 16.2372 16.1992L16.261 16.2214C15.126 17.5349 12.3553 20.7666 10.2698 23.8756C9.9528 23.5719 9.6618 23.2419 9.3999 22.8892ZM10.2665 24.8834C11.0216 25.4142 11.8595 25.815 12.7459 26.0691C13.2632 26.2248 13.7961 26.3226 14.3348 26.3608C14.7566 26.3976 15.1806 26.4006 15.6028 26.3698C13.5428 28.8418 11.6445 30.6151 9.71997 30.6151C8.61114 30.6151 8.18026 30.1603 8.18026 29.3882C8.17617 28.3277 9.04536 26.6846 10.2665 24.8834ZM19.255 44.1906C20.3006 44.6109 21.2961 45.0105 22.1701 45.392C21.0242 46.1196 19.7747 46.6681 18.4646 47.0186L18.4835 46.9758C17.6825 46.6149 16.7173 45.5898 15.6931 44.5038C14.3463 43.0725 12.8304 41.4615 11.2432 40.9037C12.0581 41.0379 12.7574 41.3701 13.7053 41.8232C14.1157 42.0177 14.5662 42.2353 15.0898 42.4635C16.5409 43.0997 17.9837 43.6798 19.255 44.1906ZM19.4495 43.7053L18.3407 43.2578C20.5033 42.775 21.2501 42.4775 22.1529 41.9394C22.8644 41.515 23.2846 40.991 23.6917 40.4843C24.391 39.6133 25.0549 38.7868 27.247 38.5404C26.13 39.282 25.5662 40.0994 24.9745 40.9573C24.6011 41.4978 24.2153 42.0573 23.6695 42.6053C22.9137 43.3658 21.9781 43.9055 20.8127 44.2533C20.3719 44.0753 19.9156 43.8923 19.4495 43.7053ZM23.2855 40.1547C22.8907 40.6491 22.5172 41.1113 21.8903 41.4879C21.5121 41.7189 21.1131 41.9137 20.6986 42.0696C17.4732 41.8224 14.6171 40.1077 12.3208 38.7258C10.9017 37.8722 9.67642 37.1355 8.59887 36.8529C8.52086 36.8331 8.44459 36.8141 8.36908 36.7968C9.87592 36.7465 10.8689 37.2088 12.3831 37.9093C12.7533 38.0823 13.1546 38.2677 13.5986 38.4629C15.6086 39.3471 18.582 40.0286 21.2878 40.0286C22.0438 40.0328 22.7987 39.9711 23.544 39.844C23.4529 39.9461 23.3692 40.0508 23.2855 40.1547ZM8.46179 37.3588C9.46882 37.6233 10.6646 38.3418 12.0491 39.1716C14.1173 40.4158 16.6295 41.9262 19.4921 42.4396C18.9652 42.5789 18.316 42.7288 17.4839 42.9051C16.7723 42.6126 16.0386 42.3045 15.304 41.9815C14.7854 41.7532 14.338 41.5398 13.9343 41.347C11.9227 40.3886 10.9133 39.9083 7.69689 40.7306C6.78345 40.9556 5.99885 41.3668 5.22657 41.7697C4.94424 41.9163 4.65863 42.0647 4.36564 42.2056C3.53349 41.1259 2.86936 39.9256 2.39593 38.6459C2.64215 38.5247 2.88015 38.3987 3.11734 38.2767C4.64796 37.4873 6.08667 36.7374 8.46179 37.3588ZM4.70295 42.6291C4.9623 42.5014 5.21671 42.3696 5.46785 42.2386C6.99191 41.4434 8.42982 40.6943 10.8024 41.3157C12.3561 41.7227 13.9261 43.3913 15.3115 44.863C16.1822 45.79 17.0136 46.6758 17.7801 47.181C15.3942 47.6853 12.9165 47.5282 10.6127 46.7262C8.30894 45.9244 6.26598 44.508 4.70295 42.6291ZM22.683 45.0476C22.3244 44.8877 21.9444 44.7246 21.5456 44.5581C22.4789 44.2152 23.328 43.6752 24.0356 42.9744C24.615 42.3918 25.0139 41.8133 25.4004 41.253C25.9503 40.4562 26.4764 39.6965 27.4768 39.0142C26.4951 41.4486 24.8306 43.5445 22.6855 45.0476H22.683ZM28.4494 14.018V32.9141C28.2267 32.9711 28.029 33.1 27.8864 33.2809C27.7439 33.4618 27.6645 33.6847 27.6605 33.9154C27.6565 34.146 27.7281 34.3715 27.8642 34.5573C28.0004 34.7431 28.1936 34.8789 28.4141 34.9436C28.3422 35.969 28.1527 36.9826 27.8494 37.9644C25.9077 38.0707 24.8875 38.5577 24.1882 39.1634C21.1984 39.9701 16.5721 39.2029 13.8014 37.9842C13.3606 37.7906 12.9625 37.6052 12.5957 37.4346C10.37 36.4005 9.14382 35.8302 5.83799 36.6798C4.71116 36.8619 3.78622 37.3391 2.88343 37.8145C2.66759 37.9273 2.4501 38.0402 2.22687 38.1499C1.7899 36.8013 1.5683 35.3918 1.5703 33.9738V20.4222C2.28572 20.6556 3.03398 20.7717 3.78622 20.7658C4.80472 20.7658 5.92006 20.5787 7.04443 20.2796C7.07152 20.376 7.0986 20.4716 7.1265 20.568C7.46041 21.621 7.99629 22.5982 8.70393 23.4446C9.0446 23.8465 9.42156 24.2158 9.82995 24.548C8.59887 26.4704 7.70181 28.2856 7.70181 29.4978C7.70181 30.4297 8.22298 30.9982 9.51313 30.9982C11.8628 30.9982 13.9122 29.01 16.1042 26.3138C16.5699 26.2491 17.0288 26.1429 17.4756 25.9966C18.493 25.6695 19.4353 25.1426 20.248 24.4466C20.6584 24.0987 21.0321 23.7093 21.3634 23.2847C21.7019 22.8616 21.9972 22.4052 22.2448 21.9227C22.4937 21.438 22.696 20.9306 22.8488 20.4073C22.9954 19.8781 23.0923 19.3363 23.1385 18.789C23.1671 18.4528 23.1756 18.1151 23.164 17.7779C24.7324 16.2057 26.4706 14.7876 28.4494 13.732C28.4502 13.8301 28.4518 13.9224 28.4518 14.018H28.4494Z" fill="white"/>
<path d="M53.607 21.6375C53.3617 22.279 52.9991 22.8684 52.5378 23.375C52.0695 23.8848 51.5026 24.2927 50.8719 24.5734C50.1915 24.875 49.455 25.0265 48.7117 25.0179C47.9981 25.0299 47.2899 24.8907 46.6332 24.6092C45.9764 24.3277 45.3858 23.9103 44.8996 23.384C44.4394 22.8854 44.0791 22.3019 43.8385 21.6657C43.5883 21.0071 43.4614 20.3076 43.4642 19.6025V19.5723C43.4617 18.8646 43.5911 18.1628 43.8454 17.5031C44.0904 16.8609 44.4531 16.2708 44.9146 15.7637C45.3829 15.2533 45.9494 14.8442 46.5796 14.5611C47.2625 14.2685 47.997 14.1177 48.7392 14.1177C49.4814 14.1177 50.2159 14.2685 50.8988 14.5611C51.5252 14.8423 52.0893 15.2471 52.5578 15.7516C53.0186 16.2517 53.3789 16.8369 53.6189 17.4749C53.8691 18.1335 53.996 18.833 53.9933 19.5382C53.9955 19.5398 53.9973 19.542 53.9986 19.5446C53.9999 19.5471 54.0006 19.5499 54.0006 19.5527C54.0006 19.5555 53.9999 19.5584 53.9986 19.5609C53.9973 19.5634 53.9955 19.5656 53.9933 19.5673C53.9942 20.2756 53.8631 20.9779 53.607 21.6375ZM53.1807 19.5673C53.1844 18.9368 53.0703 18.3113 52.8444 17.7233C52.6328 17.1662 52.3185 16.6544 51.918 16.2151C51.5189 15.7853 51.0387 15.4401 50.5055 15.1996C49.6737 14.8204 48.7448 14.7134 47.8495 14.8938C46.9542 15.0742 46.1375 15.5328 45.5145 16.2051C45.1156 16.6403 44.8038 17.149 44.5961 17.7032C44.3737 18.2895 44.262 18.9125 44.2667 19.5402V19.5693C44.2629 20.2001 44.377 20.826 44.6031 21.4143C44.8143 21.9716 45.1286 22.4834 45.5294 22.9225C45.9284 23.3526 46.4086 23.6982 46.9419 23.939C47.7732 24.3165 48.7009 24.4225 49.5951 24.2422C50.4892 24.0619 51.305 23.6043 51.928 22.9336C52.3268 22.4982 52.6386 21.9896 52.8463 21.4355C53.0686 20.8491 53.1803 20.2261 53.1757 19.5984L53.1807 19.5673Z" fill="white"/>
<path d="M66.9771 19.0103C66.7635 19.4251 66.4595 19.7857 66.0876 20.0651C65.6971 20.3539 65.2572 20.5682 64.79 20.6974C64.2813 20.8395 63.7556 20.9102 63.2278 20.9076H60.4029V24.8369H59.6262V14.2987H63.4194C63.953 14.2923 64.4845 14.3658 64.9966 14.5169C65.4414 14.6472 65.8575 14.8619 66.2224 15.1493C66.5612 15.4189 66.8343 15.7627 67.021 16.1548C67.2168 16.5814 67.3137 17.0473 67.3045 17.5172V17.5473C67.3161 18.0547 67.2036 18.5571 66.9771 19.0103ZM66.5278 17.5655C66.5366 17.1815 66.4573 16.8006 66.2963 16.4524C66.1456 16.139 65.9228 15.8663 65.6465 15.6571C65.3463 15.4348 65.0078 15.2705 64.6482 15.1725C64.2293 15.058 63.7966 15.0021 63.3625 15.0065H60.3998V20.1998H63.2697C63.7196 20.2052 64.168 20.1442 64.6004 20.0187C64.9716 19.9117 65.3192 19.7342 65.6245 19.4959C65.9039 19.2736 66.1309 18.9917 66.2893 18.6705C66.4513 18.3359 66.533 17.9678 66.5278 17.5956V17.5655Z" fill="white"/>
<path d="M80.2938 24.8369L78.9646 21.8859H72.7915L71.4599 24.8369H70.6533L75.5276 14.2253H76.2766L81.1482 24.8389L80.2938 24.8369ZM75.885 15.084L73.1189 21.1811H78.6351L75.885 15.084Z" fill="white"/>
<path d="M86.3484 24.8368V14.2986H87.124V24.1289H93.2664V24.8328L86.3484 24.8368Z" fill="white"/>
<path d="M98.6941 24.8368V14.2986H99.4704V24.8368H98.6941Z" fill="white"/>
<path d="M112.423 23.2744C112.253 23.6268 112.008 23.9377 111.705 24.1853C111.381 24.4477 111.012 24.6468 110.615 24.7725C110.163 24.9176 109.692 24.9888 109.217 24.9836C108.442 24.9954 107.672 24.8519 106.952 24.5614C106.236 24.253 105.577 23.8258 105.002 23.2975L105.51 22.7103C105.779 22.9659 106.066 23.2012 106.37 23.4141C106.644 23.6049 106.936 23.7663 107.244 23.8957C107.547 24.0229 107.863 24.1189 108.186 24.1823C108.54 24.251 108.901 24.2846 109.261 24.2828C109.626 24.2867 109.989 24.2334 110.338 24.1249C110.641 24.0329 110.925 23.8849 111.176 23.6886C111.399 23.5085 111.582 23.2827 111.713 23.026C111.845 22.7677 111.914 22.4811 111.912 22.1905V22.1603C111.917 21.9035 111.874 21.648 111.785 21.4072C111.686 21.1679 111.527 20.9595 111.321 20.804C111.049 20.596 110.746 20.4312 110.423 20.3153C109.947 20.1411 109.457 20.0066 108.958 19.9131C108.405 19.8056 107.862 19.6519 107.334 19.4536C106.938 19.3074 106.567 19.099 106.236 18.8363C105.965 18.6183 105.752 18.3365 105.616 18.0158C105.481 17.6761 105.415 17.3128 105.421 16.947V16.9169C105.418 16.5381 105.505 16.1641 105.674 15.826C105.844 15.4873 106.082 15.1876 106.373 14.9451C106.687 14.6859 107.047 14.4868 107.432 14.358C107.867 14.214 108.322 14.143 108.779 14.1479C109.448 14.1328 110.113 14.2398 110.744 14.4635C111.334 14.6964 111.883 15.0233 112.37 15.4318L111.877 16.0491C111.028 15.2619 109.908 14.8359 108.754 14.8597C108.396 14.8547 108.04 14.908 107.7 15.0176C107.408 15.1111 107.135 15.2565 106.894 15.4469C106.678 15.6167 106.501 15.8322 106.377 16.0783C106.257 16.3164 106.196 16.5797 106.198 16.8465V16.8766C106.194 17.1357 106.236 17.3933 106.324 17.6368C106.423 17.88 106.582 18.093 106.788 18.2541C107.07 18.4713 107.386 18.6411 107.723 18.7569C108.22 18.9347 108.73 19.0755 109.247 19.1781C110.463 19.4295 111.339 19.7831 111.877 20.2389C112.416 20.6947 112.685 21.3097 112.685 22.0839V22.1141C112.688 22.516 112.598 22.913 112.423 23.2744Z" fill="white"/>
<path d="M126.749 24.8369L125.419 21.8859H119.249L117.918 24.8369H117.111L121.981 14.2253H122.729L127.602 24.8389L126.749 24.8369ZM122.341 15.084L119.575 21.1811H125.09L122.341 15.084Z" fill="white"/>
<path d="M62.4911 27.2058C62.5168 27.2031 62.5427 27.207 62.5665 27.2173C62.5903 27.2275 62.611 27.2436 62.6269 27.2641C63.3615 28.2766 65.1982 28.2957 65.8361 28.2957C69.6842 28.2957 75.4069 25.0632 76.8387 24.0306C77.1091 23.8365 77.3984 23.6606 77.5143 23.6606C77.5734 23.6606 77.5923 23.739 77.5923 23.7974C77.5923 24.3815 69.1811 33.0867 69.1811 36.1443C69.1811 36.8069 69.5484 37.196 70.4958 37.196C75.5427 37.196 80.378 22.8623 89.6387 20.9348C89.8122 20.9348 89.947 21.0122 89.947 21.2264C89.947 21.4406 89.7152 21.4797 89.6183 21.519C79.5835 24.0326 75.9677 37.5278 70.3221 37.5278C69.224 37.5278 68.7748 37.0402 68.7748 36.2419C68.7748 33.4185 74.4407 26.7765 76.0836 24.8681L76.0647 24.849C75.9647 24.849 69.7222 28.7633 65.4298 28.7633C63.4773 28.7633 62.2006 27.9066 62.2006 27.5175C62.1993 27.4778 62.2058 27.4383 62.2196 27.4011C62.2335 27.3639 62.2546 27.3299 62.2816 27.3009C62.3085 27.272 62.3409 27.2486 62.3769 27.2323C62.4129 27.216 62.4517 27.207 62.4911 27.2058Z" fill="white"/>
<path d="M82.6153 35.2493C82.0352 35.8334 81.28 36.1441 80.6037 36.1441C80.3628 36.1501 80.1235 36.1027 79.9031 36.0052C79.6827 35.9077 79.4865 35.7626 79.3282 35.58C78.9215 36.3392 78.0899 37.0993 77.2393 37.0993C76.872 37.0993 76.6599 36.8851 76.6599 36.5342C76.6599 35.9892 77.1818 35.1125 78.5935 34.1965C78.642 34.2192 78.6837 34.2546 78.7147 34.2992C78.745 34.3438 78.7632 34.3959 78.767 34.4499C78.7655 34.4724 78.7594 34.4945 78.7496 34.5146C78.7397 34.5348 78.7261 34.5528 78.7087 34.5675C78.3027 34.7616 77.1227 35.6736 77.1227 36.5342C77.1227 36.7293 77.2007 36.7876 77.3946 36.7876C78.0134 36.7876 78.8829 35.93 79.0912 35.1708C79.001 34.9079 78.9556 34.6315 78.9563 34.3533C78.9563 34.2749 78.9942 34.1191 79.1116 34.1191C79.3631 34.1191 79.5554 34.5675 79.5554 34.8008C79.5524 34.8928 79.5395 34.9841 79.5168 35.0733C79.691 35.5409 80.1553 35.7771 80.7143 35.7771C81.355 35.7655 81.9647 35.4992 82.4116 35.0361L82.6153 35.2493Z" fill="white"/>
<path d="M83.7202 37.781C84.7836 37.1375 85.8856 36.5151 87.0073 35.8526C87.3951 35.6193 87.7579 35.3464 88.0896 35.0381L88.2835 35.2533C88.0048 35.5308 87.6928 35.7727 87.355 35.9732C86.0015 36.7715 84.5905 37.5709 83.2559 38.3863C80.936 41.3836 77.4172 45.3943 76.0266 45.3943C75.5275 45.3943 75.3279 45.1611 75.3279 44.8303C75.3279 43.2326 78.6343 40.8959 82.7712 38.3441C83.7391 37.0983 84.4344 36.1823 84.4344 36.1823C84.4534 36.1632 84.8798 35.5007 84.8601 35.5007C84.8601 35.4624 84.8412 35.4423 84.8207 35.4423C84.7828 35.4423 82.8871 36.7665 82.0948 36.7665C81.8055 36.7665 81.6692 36.6107 81.6692 36.3774C81.6692 35.6565 82.8492 34.1765 83.2544 34.1765C83.3907 34.1765 83.5263 34.2549 83.5263 34.3132C83.5263 34.3524 83.468 34.3906 83.4263 34.4298C83.0976 34.7415 82.1698 35.6364 82.1698 36.2216C82.1698 36.3221 82.2463 36.3583 82.3819 36.3583C83.4263 36.3583 85.5334 34.469 85.8818 34.0789C86.0947 33.8456 86.2492 33.729 86.365 33.729C86.5006 33.729 86.5589 33.8457 86.5589 33.9623C86.5589 34.2549 85.3607 35.4815 85.2244 35.6957C84.9389 36.1643 84.3966 36.8852 83.7202 37.781ZM76.2955 45.0454C77.3202 45.0454 80.24 41.5977 82.2895 38.9886C78.732 41.2086 75.8122 43.3311 75.8122 44.6945C75.8122 44.9278 75.9667 45.0454 76.2955 45.0454Z" fill="white"/>
<path d="M90.0629 35.4635C90.1788 35.0152 90.4878 34.6261 90.8945 34.6261C90.9937 34.6261 91.0293 34.6451 91.0293 34.7035C91.0293 34.8401 90.7385 35.171 90.3303 35.5219C90.3492 36.2619 90.7355 36.5344 91.2778 36.5344C92.2245 36.5344 93.6363 35.6968 94.2945 35.0342L94.4937 35.2494C93.9945 35.8336 92.1162 36.9436 90.9362 36.9436C90.2795 36.9436 90.0281 36.457 90.0281 35.911V35.7944C89.2351 36.4177 88.1914 37.0401 87.7271 37.0401C87.3408 37.0401 87.1855 36.8461 87.1855 36.5534C87.1855 35.6576 88.7518 33.8267 90.9559 33.8267C91.5163 33.8267 91.536 33.9634 91.536 34.0609C91.536 34.2751 91.3232 34.2751 91.2656 34.2751C91.118 34.2596 90.9687 34.2533 90.8203 34.256C88.9056 34.256 87.6877 35.7361 87.6877 36.3393C87.6839 36.3736 87.6877 36.4084 87.6983 36.4411C87.7097 36.4737 87.7278 36.5034 87.7521 36.5278C87.7763 36.5523 87.8059 36.5708 87.8384 36.582C87.871 36.5933 87.9058 36.5969 87.9392 36.5927C88.4769 36.5927 89.7531 35.6968 90.0629 35.4635Z" fill="white"/>
<path d="M94.6443 38.3652C92.9046 41.3443 90.4878 45.3943 88.8041 45.3943C88.3049 45.3943 88.105 45.1611 88.105 44.8302C88.105 43.1944 90.5605 40.7793 94.4088 38.1691C95.0859 37.0199 95.5297 36.1823 95.5297 36.1823C95.5297 36.1746 95.529 36.167 95.526 36.1598C95.5229 36.1527 95.5184 36.1462 95.5131 36.1408C95.5078 36.1353 95.5017 36.131 95.4941 36.1282C95.4873 36.1253 95.4798 36.1239 95.4722 36.124C95.1435 36.3582 94.2338 36.9615 93.7135 36.9615C93.4613 36.9615 93.3068 36.8248 93.3068 36.4749C93.3068 35.4031 95.8395 33.7874 96.3424 33.7874C96.4583 33.7874 96.6711 33.923 96.6711 34.0598C96.6711 34.099 96.5553 34.1372 96.4189 34.1765C95.2215 34.4882 93.79 35.8325 93.79 36.2216C93.79 36.3774 93.9059 36.494 94.1384 36.494C94.7375 36.494 95.9562 35.3448 96.3424 34.839C96.5159 34.6048 96.6318 34.5273 96.7287 34.5273C96.7719 34.5259 96.8143 34.5413 96.8469 34.5702C96.8794 34.5992 96.8999 34.6396 96.9037 34.6832C96.8999 34.7494 96.8862 34.8147 96.8643 34.8773C96.8067 34.9949 96.4394 35.5398 96.3227 35.6957C95.994 36.1431 95.5297 36.8841 94.989 37.7599C95.9562 37.1365 96.9991 36.494 98.1011 35.8495C98.4927 35.6222 98.8562 35.3499 99.1857 35.0381L99.3849 35.2493C99.1062 35.5271 98.7949 35.7689 98.4563 35.9691C97.0998 36.7675 95.8244 37.5669 94.6443 38.3652ZM94.0255 38.8126C90.8165 41.092 88.5935 43.2919 88.5935 44.6945C88.5935 44.9278 88.7473 45.0454 89.0767 45.0454C90.1394 45.0454 92.4797 41.4228 94.0255 38.8126Z" fill="white"/>
<path d="M102.901 35.0382L103.094 35.2534C102.595 35.8376 100.638 37.1638 99.4589 37.1638C99.0333 37.1638 98.55 36.8521 98.55 36.3061C98.55 35.177 100.135 34.1062 100.87 34.1062C101.14 34.1062 101.237 34.2621 101.237 34.437C101.237 34.9045 100.097 35.6838 99.0522 36.2287C99.0522 36.5595 99.2075 36.7938 99.6899 36.7938C100.561 36.7877 102.263 35.6777 102.901 35.0382ZM99.1075 35.915C100.094 35.4284 100.77 34.8824 100.77 34.5717C100.77 34.4933 100.712 34.4541 100.615 34.4541C100.019 34.45 99.3037 35.2494 99.1105 35.911L99.1075 35.915Z" fill="white"/>
<path d="M107.154 35.0381L107.347 35.2532C107.134 35.5056 106.632 35.8756 106.05 36.1873C105.083 36.7132 103.768 37.1033 102.917 37.1033C102.377 37.1033 102.009 36.9274 102.009 36.4799C102.009 36.3766 102.049 36.2777 102.122 36.2046C102.195 36.1315 102.293 36.0903 102.396 36.0898C102.439 36.0878 102.481 36.103 102.514 36.1322C102.546 36.1613 102.566 36.2019 102.569 36.2456C102.608 36.5382 102.685 36.6157 102.82 36.6358C103.71 36.5965 104.851 34.9999 104.851 34.4157C104.851 34.279 104.793 34.2005 104.657 34.2005C104.367 34.2005 103.845 34.5715 103.36 35.0189L102.916 35.4081C102.864 35.4589 102.794 35.487 102.722 35.4865C102.633 35.4832 102.546 35.4561 102.471 35.4081C102.625 35.2915 102.742 35.1748 102.895 35.0381C103.994 34.0065 104.481 33.7139 104.887 33.7139C105.217 33.7139 105.371 33.8899 105.371 34.1623C105.371 34.8239 104.578 35.9933 103.63 36.6358C104.93 36.4367 106.148 36.0083 107.154 35.0381Z" fill="white"/>
</g>
<defs>
<clipPath id="clip0_2029_338">
<rect width="128" height="48" fill="white"/>
</clipPath>
</defs>
</svg>
