<svg width="128.000000" height="48.000000" viewBox="0 0 128 48" fill="none" xmlns="http://www.w3.org/2000/svg" xmlns:xlink="http://www.w3.org/1999/xlink">
	<desc>
			Created with Pixso.
	</desc>
	<defs>
		<clipPath id="clip2029_289">
			<rect id="Logo-horizontale.svg" rx="0.000000" width="127.238571" height="47.238571" transform="translate(0.380714 0.380714)" fill="white" fill-opacity="0"/>
		</clipPath>
	</defs>
	<g clip-path="url(#clip2029_289)">
		<path id="Vector" d="M34.68 11.37C34.67 11.32 34.64 11.27 34.6 11.23C34.57 11.19 34.52 11.17 34.47 11.16L34.37 11.13C34.25 11.11 34.13 11.11 34.01 11.14L33.26 11.32L31.15 10.02C31.1 9.99 31.04 9.97 30.98 9.96C30.92 9.95 30.85 9.95 30.79 9.96L30.58 10.02C30.56 10.02 30.55 10.03 30.54 10.04C30.52 10.05 30.51 10.07 30.51 10.08C30.51 10.1 30.51 10.12 30.51 10.13C30.51 10.15 30.52 10.16 30.54 10.18L32.05 11.64C31.67 11.72 31.3 11.82 30.93 11.94L30.42 11.46C30.41 11.45 30.4 11.44 30.38 11.44C30.37 11.43 30.35 11.43 30.34 11.44L30.16 11.48C30.14 11.48 30.13 11.49 30.12 11.5C30.11 11.51 30.1 11.52 30.09 11.53C30.09 11.54 30.08 11.56 30.08 11.57C30.08 11.59 30.09 11.6 30.09 11.61L30.35 12.14C29.86 12.32 29.38 12.53 28.91 12.76C28.28 5.62 22.28 0 15.01 0C12.86 0 10.74 0.49 8.82 1.45C6.9 2.4 5.22 3.79 3.92 5.5L3.61 3.86L3.24 5.81L1.3 6.18L3.2 6.54C1.79 8.77 1.04 11.37 1.04 14.01L1.04 19.53C0.83 19.39 0.65 19.22 0.49 19.01C0.48 18.99 0.45 18.97 0.42 18.96C0.4 18.95 0.37 18.94 0.34 18.95C0.29 18.95 0.24 18.96 0.2 18.98C0.16 19 0.12 19.02 0.09 19.06C0.06 19.09 0.03 19.13 0.02 19.17C0 19.22 -0.01 19.26 0 19.31C0 19.54 0.38 19.91 1.04 20.22L1.04 33.98C1.04 41.71 7.31 48 15.01 48C22.37 48 28.43 42.23 28.93 34.96C29.16 34.91 29.37 34.78 29.52 34.6C29.67 34.42 29.75 34.19 29.76 33.95C29.76 33.72 29.69 33.48 29.54 33.3C29.4 33.11 29.2 32.97 28.97 32.91L28.97 14.01C28.97 13.83 28.96 13.65 28.96 13.46C29.44 13.22 29.95 13.01 30.47 12.81L30.47 13.23C30.47 13.24 30.47 13.24 30.47 13.25C30.48 13.28 30.49 13.3 30.52 13.31C30.54 13.32 30.56 13.33 30.59 13.32L30.77 13.28C30.79 13.27 30.8 13.27 30.81 13.26C30.82 13.25 30.83 13.23 30.84 13.22L31.06 12.61C31.33 12.52 31.6 12.44 31.88 12.36C31.99 12.35 32.09 12.33 32.21 12.31L31.52 14.31C31.51 14.33 31.51 14.34 31.52 14.36C31.52 14.38 31.53 14.39 31.54 14.41C31.55 14.42 31.56 14.43 31.58 14.43C31.6 14.44 31.61 14.44 31.63 14.43L31.84 14.38C31.9 14.37 31.96 14.34 32.01 14.31C32.06 14.27 32.1 14.22 32.14 14.17L33.43 12.06L34.18 11.88C34.3 11.85 34.42 11.79 34.51 11.71L34.58 11.66C34.62 11.62 34.65 11.58 34.67 11.53C34.69 11.48 34.69 11.42 34.68 11.37ZM1.57 14.01C1.56 11.64 2.19 9.31 3.37 7.26L3.61 8.49L3.98 6.55L5.91 6.18L4.3 5.87C5.55 4.21 7.17 2.86 9.03 1.93C10.88 1 12.93 0.52 15.01 0.52C22.08 0.52 27.9 6.04 28.41 13.02C26.48 14.08 24.73 15.56 23.12 17.23C23.01 16.11 22.68 15.03 22.15 14.05C21.62 13.07 20.89 12.2 20.02 11.5C19.59 11.17 19.13 10.87 18.65 10.62C18.17 10.37 17.66 10.17 17.14 10.01C16.63 9.87 16.1 9.77 15.56 9.72C14.5 9.64 13.43 9.76 12.41 10.09C11.4 10.42 10.45 10.95 9.64 11.64C9.23 12 8.86 12.39 8.53 12.81C7.86 13.66 7.35 14.64 7.05 15.68C6.89 16.21 6.79 16.76 6.75 17.3C6.68 18.16 6.75 19.03 6.94 19.87C6.06 20.09 5.16 20.2 4.25 20.22C3.73 20.22 2.54 20.21 1.57 19.81L1.57 14.01ZM15.92 25.97C15.4 26.02 14.89 26.01 14.37 25.94C13.87 25.86 13.38 25.74 12.91 25.56C12.44 25.39 11.99 25.16 11.56 24.89C11.26 24.7 10.97 24.49 10.69 24.26C13.61 20.12 18.02 15.42 18.02 14.97C18.02 14.9 18 14.81 17.93 14.81C17.8 14.81 17.46 15.01 17.14 15.24C15.88 16.14 11.76 18.51 7.88 19.62C7.7 18.88 7.62 18.12 7.64 17.35C7.66 16.86 7.72 16.37 7.82 15.89C7.92 15.39 8.07 14.92 8.26 14.45C8.64 13.52 9.21 12.67 9.93 11.97C10.66 11.26 11.55 10.73 12.52 10.42C13.48 10.11 14.51 10.01 15.52 10.15C16.52 10.3 17.47 10.65 18.33 11.19C20.01 12.27 21.25 13.91 21.83 15.82C22.08 16.58 22.21 17.37 22.24 18.17C19.89 20.75 17.83 23.63 15.92 25.97ZM22.24 18.73L22.24 18.74C22.23 19.23 22.18 19.72 22.07 20.2C21.87 21.19 21.48 22.13 20.93 22.97C20.65 23.39 20.32 23.77 19.95 24.12C19.21 24.82 18.33 25.35 17.36 25.67C17.06 25.77 16.75 25.85 16.43 25.9C18.19 23.7 20.05 21.1 22.24 18.73L22.24 18.73ZM9.39 22.88C8.8 22.09 8.35 21.21 8.06 20.26C8.04 20.18 8.01 20.09 7.98 20C12.11 18.7 16.15 16.19 16.23 16.19L16.26 16.22C15.12 17.53 12.35 20.76 10.26 23.87C9.95 23.57 9.66 23.24 9.39 22.88ZM10.26 24.88C11.02 25.41 11.85 25.81 12.74 26.06C13.26 26.22 13.79 26.32 14.33 26.36C14.75 26.39 15.18 26.4 15.6 26.36C13.54 28.84 11.64 30.61 9.71 30.61C8.61 30.61 8.18 30.16 8.18 29.38C8.17 28.32 9.04 26.68 10.26 24.88ZM19.25 44.19C20.3 44.61 21.29 45.01 22.17 45.39C21.02 46.11 19.77 46.66 18.46 47.01L18.48 46.97C17.68 46.61 16.71 45.58 15.69 44.5C14.34 43.07 12.83 41.46 11.24 40.9C12.05 41.03 12.75 41.37 13.7 41.82C14.11 42.01 14.56 42.23 15.08 42.46C16.54 43.09 17.98 43.67 19.25 44.19ZM19.44 43.7L18.34 43.25C20.5 42.77 21.25 42.47 22.15 41.93C22.86 41.51 23.28 40.99 23.69 40.48C24.39 39.61 25.05 38.78 27.24 38.54C26.13 39.28 25.56 40.09 24.97 40.95C24.6 41.49 24.21 42.05 23.66 42.6C22.91 43.36 21.97 43.9 20.81 44.25C20.37 44.07 19.91 43.89 19.44 43.7ZM23.28 40.15C22.89 40.64 22.51 41.11 21.89 41.48C21.51 41.71 21.11 41.91 20.69 42.06C17.47 41.82 14.61 40.1 12.32 38.72C10.9 37.87 9.67 37.13 8.59 36.85C8.52 36.83 8.44 36.81 8.36 36.79C9.87 36.74 10.86 37.2 12.38 37.9C12.75 38.08 13.15 38.26 13.59 38.46C15.6 39.34 18.58 40.02 21.28 40.02C22.04 40.03 22.79 39.97 23.54 39.84C23.45 39.94 23.36 40.05 23.28 40.15ZM8.46 37.35C9.46 37.62 10.66 38.34 12.04 39.17C14.11 40.41 16.62 41.92 19.49 42.43C18.96 42.57 18.31 42.72 17.48 42.9C16.77 42.61 16.03 42.3 15.3 41.98C14.78 41.75 14.33 41.53 13.93 41.34C11.92 40.38 10.91 39.9 7.69 40.73C6.78 40.95 5.99 41.36 5.22 41.76C4.94 41.91 4.65 42.06 4.36 42.2C3.53 41.12 2.86 39.92 2.39 38.64C2.64 38.52 2.88 38.39 3.11 38.27C4.64 37.48 6.08 36.73 8.46 37.35ZM4.7 42.62C4.96 42.5 5.21 42.36 5.46 42.23C6.99 41.44 8.42 40.69 10.8 41.31C12.35 41.72 13.92 43.39 15.31 44.86C16.18 45.79 17.01 46.67 17.78 47.18C15.39 47.68 12.91 47.52 10.61 46.72C8.3 45.92 6.26 44.5 4.7 42.62ZM22.68 45.04C22.32 44.88 21.94 44.72 21.54 44.55C22.47 44.21 23.32 43.67 24.03 42.97C24.61 42.39 25.01 41.81 25.4 41.25C25.95 40.45 26.47 39.69 27.47 39.01C26.49 41.44 24.83 43.54 22.68 45.04L22.68 45.04ZM28.44 14.01L28.44 32.91C28.22 32.97 28.02 33.09 27.88 33.28C27.74 33.46 27.66 33.68 27.66 33.91C27.65 34.14 27.72 34.37 27.86 34.55C28 34.74 28.19 34.87 28.41 34.94C28.34 35.96 28.15 36.98 27.84 37.96C25.9 38.07 24.88 38.55 24.18 39.16C21.19 39.97 16.57 39.2 13.8 37.98C13.36 37.79 12.96 37.6 12.59 37.43C10.36 36.4 9.14 35.83 5.83 36.67C4.71 36.86 3.78 37.33 2.88 37.81C2.66 37.92 2.45 38.04 2.22 38.14C1.78 36.8 1.56 35.39 1.57 33.97L1.57 20.42C2.28 20.65 3.03 20.77 3.78 20.76C4.8 20.76 5.92 20.57 7.04 20.27C7.07 20.37 7.09 20.47 7.12 20.56C7.46 21.62 7.99 22.59 8.7 23.44C9.04 23.84 9.42 24.21 9.82 24.54C8.59 26.47 7.7 28.28 7.7 29.49C7.7 30.42 8.22 30.99 9.51 30.99C11.86 30.99 13.91 29.01 16.1 26.31C16.56 26.24 17.02 26.14 17.47 25.99C18.49 25.66 19.43 25.14 20.24 24.44C20.65 24.09 21.03 23.7 21.36 23.28C21.7 22.86 21.99 22.4 22.24 21.92C22.49 21.43 22.69 20.93 22.84 20.4C22.99 19.87 23.09 19.33 23.13 18.78C23.16 18.45 23.17 18.11 23.16 17.77C24.73 16.2 26.47 14.78 28.44 13.73C28.45 13.83 28.45 13.92 28.45 14.01L28.44 14.01Z" fill="#FFFFFF" fill-opacity="1.000000" fill-rule="nonzero"/>
		<path id="Vector" d="M53.6 21.63C53.36 22.27 52.99 22.86 52.53 23.37C52.06 23.88 51.5 24.29 50.87 24.57C50.19 24.87 49.45 25.02 48.71 25.01C47.99 25.02 47.28 24.89 46.63 24.6C45.97 24.32 45.38 23.91 44.89 23.38C44.43 22.88 44.07 22.3 43.83 21.66C43.58 21 43.46 20.3 43.46 19.6L43.46 19.57C43.46 18.86 43.59 18.16 43.84 17.5C44.09 16.86 44.45 16.27 44.91 15.76C45.38 15.25 45.94 14.84 46.57 14.56C47.26 14.26 47.99 14.11 48.73 14.11C49.48 14.11 50.21 14.26 50.89 14.56C51.52 14.84 52.08 15.24 52.55 15.75C53.01 16.25 53.37 16.83 53.61 17.47C53.86 18.13 53.99 18.83 53.99 19.53C53.99 19.53 53.99 19.54 53.99 19.54C54 19.54 54 19.54 54 19.55C54 19.55 54 19.55 53.99 19.56C53.99 19.56 53.99 19.56 53.99 19.56C53.99 20.27 53.86 20.97 53.6 21.63ZM53.18 19.56C53.18 18.93 53.07 18.31 52.84 17.72C52.63 17.16 52.31 16.65 51.91 16.21C51.51 15.78 51.03 15.44 50.5 15.19C49.67 14.82 48.74 14.71 47.84 14.89C46.95 15.07 46.13 15.53 45.51 16.2C45.11 16.64 44.8 17.14 44.59 17.7C44.37 18.28 44.26 18.91 44.26 19.54L44.26 19.56C44.26 20.2 44.37 20.82 44.6 21.41C44.81 21.97 45.12 22.48 45.52 22.92C45.92 23.35 46.4 23.69 46.94 23.93C47.77 24.31 48.7 24.42 49.59 24.24C50.48 24.06 51.3 23.6 51.92 22.93C52.32 22.49 52.63 21.98 52.84 21.43C53.06 20.84 53.18 20.22 53.17 19.59L53.18 19.56Z" fill="#FFFFFF" fill-opacity="1.000000" fill-rule="nonzero"/>
		<path id="Vector" d="M66.97 19.01C66.76 19.42 66.45 19.78 66.08 20.06C65.69 20.35 65.25 20.56 64.79 20.69C64.28 20.83 63.75 20.91 63.22 20.9L60.4 20.9L60.4 24.83L59.62 24.83L59.62 14.29L63.41 14.29C63.95 14.29 64.48 14.36 64.99 14.51C65.44 14.64 65.85 14.86 66.22 15.14C66.56 15.41 66.83 15.76 67.02 16.15C67.21 16.58 67.31 17.04 67.3 17.51L67.3 17.54C67.31 18.05 67.2 18.55 66.97 19.01ZM66.52 17.56C66.53 17.18 66.45 16.8 66.29 16.45C66.14 16.13 65.92 15.86 65.64 15.65C65.34 15.43 65 15.27 64.64 15.17C64.22 15.05 63.79 15 63.36 15L60.39 15L60.39 20.19L63.26 20.19C63.71 20.2 64.16 20.14 64.6 20.01C64.97 19.91 65.31 19.73 65.62 19.49C65.9 19.27 66.13 18.99 66.28 18.67C66.45 18.33 66.53 17.96 66.52 17.59L66.52 17.56Z" fill="#FFFFFF" fill-opacity="1.000000" fill-rule="nonzero"/>
		<path id="Vector" d="M80.29 24.83L78.96 21.88L72.79 21.88L71.46 24.83L70.65 24.83L75.52 14.22L76.27 14.22L81.14 24.83L80.29 24.83ZM75.88 15.08L73.11 21.18L78.63 21.18L75.88 15.08Z" fill="#FFFFFF" fill-opacity="1.000000" fill-rule="nonzero"/>
		<path id="Vector" d="M86.34 24.83L86.34 14.29L87.12 14.29L87.12 24.12L93.26 24.12L93.26 24.83L86.34 24.83Z" fill="#FFFFFF" fill-opacity="1.000000" fill-rule="nonzero"/>
		<path id="Vector" d="M98.69 24.83L98.69 14.29L99.47 14.29L99.47 24.83L98.69 24.83Z" fill="#FFFFFF" fill-opacity="1.000000" fill-rule="nonzero"/>
		<path id="Vector" d="M112.42 23.27C112.25 23.62 112 23.93 111.7 24.18C111.38 24.44 111.01 24.64 110.61 24.77C110.16 24.91 109.69 24.98 109.21 24.98C108.44 24.99 107.67 24.85 106.95 24.56C106.23 24.25 105.57 23.82 105 23.29L105.51 22.71C105.77 22.96 106.06 23.2 106.37 23.41C106.64 23.6 106.93 23.76 107.24 23.89C107.54 24.02 107.86 24.11 108.18 24.18C108.54 24.25 108.9 24.28 109.26 24.28C109.62 24.28 109.98 24.23 110.33 24.12C110.64 24.03 110.92 23.88 111.17 23.68C111.39 23.5 111.58 23.28 111.71 23.02C111.84 22.76 111.91 22.48 111.91 22.19L111.91 22.16C111.91 21.9 111.87 21.64 111.78 21.4C111.68 21.16 111.52 20.95 111.32 20.8C111.04 20.59 110.74 20.43 110.42 20.31C109.94 20.14 109.45 20 108.95 19.91C108.4 19.8 107.86 19.65 107.33 19.45C106.93 19.3 106.56 19.09 106.23 18.83C105.96 18.61 105.75 18.33 105.61 18.01C105.48 17.67 105.41 17.31 105.42 16.94L105.42 16.91C105.41 16.53 105.5 16.16 105.67 15.82C105.84 15.48 106.08 15.18 106.37 14.94C106.68 14.68 107.04 14.48 107.43 14.35C107.86 14.21 108.32 14.14 108.77 14.14C109.44 14.13 110.11 14.23 110.74 14.46C111.33 14.69 111.88 15.02 112.37 15.43L111.87 16.04C111.02 15.26 109.9 14.83 108.75 14.85C108.39 14.85 108.04 14.9 107.7 15.01C107.4 15.11 107.13 15.25 106.89 15.44C106.67 15.61 106.5 15.83 106.37 16.07C106.25 16.31 106.19 16.57 106.19 16.84L106.19 16.87C106.19 17.13 106.23 17.39 106.32 17.63C106.42 17.87 106.58 18.09 106.78 18.25C107.07 18.47 107.38 18.64 107.72 18.75C108.22 18.93 108.73 19.07 109.24 19.17C110.46 19.42 111.33 19.78 111.87 20.23C112.41 20.69 112.68 21.3 112.68 22.08L112.68 22.11C112.68 22.51 112.59 22.91 112.42 23.27Z" fill="#FFFFFF" fill-opacity="1.000000" fill-rule="nonzero"/>
		<path id="Vector" d="M126.74 24.83L125.41 21.88L119.24 21.88L117.91 24.83L117.11 24.83L121.98 14.22L122.72 14.22L127.6 24.83L126.74 24.83ZM122.34 15.08L119.57 21.18L125.09 21.18L122.34 15.08Z" fill="#FFFFFF" fill-opacity="1.000000" fill-rule="nonzero"/>
		<path id="Vector" d="M62.49 27.2C62.51 27.2 62.54 27.2 62.56 27.21C62.59 27.22 62.61 27.24 62.62 27.26C63.36 28.27 65.19 28.29 65.83 28.29C69.68 28.29 75.4 25.06 76.83 24.03C77.1 23.83 77.39 23.66 77.51 23.66C77.57 23.66 77.59 23.73 77.59 23.79C77.59 24.38 69.18 33.08 69.18 36.14C69.18 36.8 69.54 37.19 70.49 37.19C75.54 37.19 80.37 22.86 89.63 20.93C89.81 20.93 89.94 21.01 89.94 21.22C89.94 21.44 89.71 21.47 89.61 21.51C79.58 24.03 75.96 37.52 70.32 37.52C69.22 37.52 68.77 37.04 68.77 36.24C68.77 33.41 74.44 26.77 76.08 24.86L76.06 24.84C75.96 24.84 69.72 28.76 65.42 28.76C63.47 28.76 62.2 27.9 62.2 27.51C62.19 27.47 62.2 27.43 62.21 27.4C62.23 27.36 62.25 27.32 62.28 27.3C62.3 27.27 62.34 27.24 62.37 27.23C62.41 27.21 62.45 27.2 62.49 27.2Z" fill="#FFFFFF" fill-opacity="1.000000" fill-rule="nonzero"/>
		<path id="Vector" d="M82.61 35.24C82.03 35.83 81.28 36.14 80.6 36.14C80.36 36.15 80.12 36.1 79.9 36C79.68 35.9 79.48 35.76 79.32 35.58C78.92 36.33 78.08 37.09 77.23 37.09C76.87 37.09 76.65 36.88 76.65 36.53C76.65 35.98 77.18 35.11 78.59 34.19C78.64 34.21 78.68 34.25 78.71 34.29C78.74 34.34 78.76 34.39 78.76 34.45C78.76 34.47 78.75 34.49 78.74 34.51C78.73 34.53 78.72 34.55 78.7 34.56C78.3 34.76 77.12 35.67 77.12 36.53C77.12 36.72 77.2 36.78 77.39 36.78C78.01 36.78 78.88 35.93 79.09 35.17C79 34.9 78.95 34.63 78.95 34.35C78.95 34.27 78.99 34.11 79.11 34.11C79.36 34.11 79.55 34.56 79.55 34.8C79.55 34.89 79.53 34.98 79.51 35.07C79.69 35.54 80.15 35.77 80.71 35.77C81.35 35.76 81.96 35.49 82.41 35.03L82.61 35.24Z" fill="#FFFFFF" fill-opacity="1.000000" fill-rule="nonzero"/>
		<path id="Vector" d="M83.72 37.78C84.78 37.13 85.88 36.51 87 35.85C87.39 35.61 87.75 35.34 88.08 35.03L88.28 35.25C88 35.53 87.69 35.77 87.35 35.97C86 36.77 84.59 37.57 83.25 38.38C80.93 41.38 77.41 45.39 76.02 45.39C75.52 45.39 75.32 45.16 75.32 44.83C75.32 43.23 78.63 40.89 82.77 38.34C83.73 37.09 84.43 36.18 84.43 36.18C84.45 36.16 84.88 35.5 84.86 35.5C84.86 35.46 84.84 35.44 84.82 35.44C84.78 35.44 82.88 36.76 82.09 36.76C81.8 36.76 81.66 36.61 81.66 36.37C81.66 35.65 82.84 34.17 83.25 34.17C83.39 34.17 83.52 34.25 83.52 34.31C83.52 34.35 83.46 34.39 83.42 34.42C83.09 34.74 82.17 35.63 82.17 36.22C82.17 36.32 82.24 36.35 82.38 36.35C83.42 36.35 85.53 34.46 85.88 34.07C86.09 33.84 86.24 33.72 86.36 33.72C86.5 33.72 86.55 33.84 86.55 33.96C86.55 34.25 85.36 35.48 85.22 35.69C84.93 36.16 84.39 36.88 83.72 37.78ZM76.29 45.04C77.32 45.04 80.24 41.59 82.28 38.98C78.73 41.2 75.81 43.33 75.81 44.69C75.81 44.92 75.96 45.04 76.29 45.04Z" fill="#FFFFFF" fill-opacity="1.000000" fill-rule="nonzero"/>
		<path id="Vector" d="M90.06 35.46C90.17 35.01 90.48 34.62 90.89 34.62C90.99 34.62 91.02 34.64 91.02 34.7C91.02 34.84 90.73 35.17 90.33 35.52C90.34 36.26 90.73 36.53 91.27 36.53C92.22 36.53 93.63 35.69 94.29 35.03L94.49 35.24C93.99 35.83 92.11 36.94 90.93 36.94C90.27 36.94 90.02 36.45 90.02 35.91L90.02 35.79C89.23 36.41 88.19 37.04 87.72 37.04C87.34 37.04 87.18 36.84 87.18 36.55C87.18 35.65 88.75 33.82 90.95 33.82C91.51 33.82 91.53 33.96 91.53 34.06C91.53 34.27 91.32 34.27 91.26 34.27C91.11 34.25 90.96 34.25 90.82 34.25C88.9 34.25 87.68 35.73 87.68 36.33C87.68 36.37 87.68 36.4 87.69 36.44C87.7 36.47 87.72 36.5 87.75 36.52C87.77 36.55 87.8 36.57 87.83 36.58C87.87 36.59 87.9 36.59 87.93 36.59C88.47 36.59 89.75 35.69 90.06 35.46Z" fill="#FFFFFF" fill-opacity="1.000000" fill-rule="nonzero"/>
		<path id="Vector" d="M94.64 38.36C92.9 41.34 90.48 45.39 88.8 45.39C88.3 45.39 88.1 45.16 88.1 44.83C88.1 43.19 90.56 40.77 94.4 38.16C95.08 37.02 95.52 36.18 95.52 36.18C95.52 36.17 95.52 36.16 95.52 36.15C95.52 36.15 95.51 36.14 95.51 36.14C95.5 36.13 95.5 36.13 95.49 36.12C95.48 36.12 95.47 36.12 95.47 36.12C95.14 36.35 94.23 36.96 93.71 36.96C93.46 36.96 93.3 36.82 93.3 36.47C93.3 35.4 95.83 33.78 96.34 33.78C96.45 33.78 96.67 33.92 96.67 34.05C96.67 34.09 96.55 34.13 96.41 34.17C95.22 34.48 93.79 35.83 93.79 36.22C93.79 36.37 93.9 36.49 94.13 36.49C94.73 36.49 95.95 35.34 96.34 34.83C96.51 34.6 96.63 34.52 96.72 34.52C96.77 34.52 96.81 34.54 96.84 34.57C96.87 34.59 96.89 34.63 96.9 34.68C96.89 34.74 96.88 34.81 96.86 34.87C96.8 34.99 96.43 35.53 96.32 35.69C95.99 36.14 95.52 36.88 94.98 37.75C95.95 37.13 96.99 36.49 98.1 35.84C98.49 35.62 98.85 35.34 99.18 35.03L99.38 35.24C99.1 35.52 98.79 35.76 98.45 35.96C97.09 36.76 95.82 37.56 94.64 38.36ZM94.02 38.81C90.81 41.09 88.59 43.29 88.59 44.69C88.59 44.92 88.74 45.04 89.07 45.04C90.13 45.04 92.47 41.42 94.02 38.81Z" fill="#FFFFFF" fill-opacity="1.000000" fill-rule="nonzero"/>
		<path id="Vector" d="M102.9 35.03L103.09 35.25C102.59 35.83 100.63 37.16 99.45 37.16C99.03 37.16 98.55 36.85 98.55 36.3C98.55 35.17 100.13 34.1 100.87 34.1C101.14 34.1 101.23 34.26 101.23 34.43C101.23 34.9 100.09 35.68 99.05 36.22C99.05 36.55 99.2 36.79 99.69 36.79C100.56 36.78 102.26 35.67 102.9 35.03ZM99.1 35.91C100.09 35.42 100.77 34.88 100.77 34.57C100.77 34.49 100.71 34.45 100.61 34.45C100.01 34.45 99.3 35.24 99.11 35.91L99.1 35.91Z" fill="#FFFFFF" fill-opacity="1.000000" fill-rule="nonzero"/>
		<path id="Vector" d="M107.15 35.03L107.34 35.25C107.13 35.5 106.63 35.87 106.05 36.18C105.08 36.71 103.76 37.1 102.91 37.1C102.37 37.1 102 36.92 102 36.48C102 36.37 102.04 36.27 102.12 36.2C102.19 36.13 102.29 36.09 102.39 36.08C102.43 36.08 102.48 36.1 102.51 36.13C102.54 36.16 102.56 36.2 102.56 36.24C102.6 36.53 102.68 36.61 102.82 36.63C103.71 36.59 104.85 35 104.85 34.41C104.85 34.27 104.79 34.2 104.65 34.2C104.36 34.2 103.84 34.57 103.35 35.01L102.91 35.4C102.86 35.45 102.79 35.48 102.72 35.48C102.63 35.48 102.54 35.45 102.47 35.4C102.62 35.29 102.74 35.17 102.89 35.03C103.99 34 104.48 33.71 104.88 33.71C105.21 33.71 105.37 33.89 105.37 34.16C105.37 34.82 104.57 35.99 103.63 36.63C104.93 36.43 106.14 36 107.15 35.03Z" fill="#FFFFFF" fill-opacity="1.000000" fill-rule="nonzero"/>
	</g>
</svg>
